<svg width="14" height="13" viewBox="0 0 14 13" xmlns="http://www.w3.org/2000/svg"><title></title><path d="M14 4.918c-.018-1.076-.415-2.019-1.19-2.83C12.037 1.277 11.12.87 10.063.87c-1.24 0-2.26.538-3.062 1.613C6.198 1.41 5.177.871 3.937.871c-1.057 0-1.973.406-2.748 1.217C.415 2.899.02 3.842 0 4.918V5c0 .018.005.046.014.082a.368.368 0 0 1 .013.082c.019.747.164 1.463.438 2.147.273.683.606 1.271.998 1.763s.852.962 1.38 1.408c.53.447 1.008.807 1.436 1.08.429.274.875.52 1.34.739.465.219.78.36.944.424.164.063.291.114.382.15a8.51 8.51 0 0 1 .383-.137c.164-.054.483-.196.957-.424.474-.227.93-.478 1.367-.752.438-.273.925-.628 1.463-1.066a8.839 8.839 0 0 0 1.395-1.408 7.55 7.55 0 0 0 1.01-1.778c.283-.684.433-1.4.452-2.147 0-.018.004-.046.013-.082A.374.374 0 0 0 14 5v-.082zm-.902.219a5.187 5.187 0 0 1-.588 2.27c-.374.728-.798 1.33-1.272 1.804s-1.025.92-1.654 1.34c-.629.419-1.14.72-1.531.902a33 33 0 0 1-1.108.492c-.346-.146-.71-.31-1.093-.492s-.885-.483-1.504-.902A10.54 10.54 0 0 1 2.72 9.21c-.465-.474-.88-1.076-1.244-1.805A5.349 5.349 0 0 1 .902 5.11.243.243 0 0 0 .875 5v-.055a3.253 3.253 0 0 1 .93-2.256c.601-.628 1.312-.943 2.133-.943.947 0 1.731.42 2.351 1.258.182.237.42.355.711.355a.856.856 0 0 0 .71-.355c.62-.839 1.405-1.258 2.353-1.258.82 0 1.53.315 2.132.943.602.63.912 1.381.93 2.256V5a.304.304 0 0 0-.027.137z" fill="#FFF" fill-rule="evenodd"/></svg>