<svg width="37" height="37" viewBox="0 0 37 37" xmlns="http://www.w3.org/2000/svg"><title></title><path d="M8.578 17.969c1.547 1.547 3.375 2.015 5.485 1.406L3.374 8.758c-.328-.375-.492-.867-.492-1.477 0-1.172.398-2.156 1.195-2.953.516-.516 1.23-.89 2.145-1.125.914-.234 1.699-.117 2.355.352l10.617 10.617c.14-.516.211-1.031.211-1.547 0-1.547-.539-2.836-1.617-3.867l-7.172-7.242C9.492.484 8.051.074 6.293.286c-1.758.21-3.176.878-4.254 2.003C.68 3.602 0 5.266 0 7.281c0 1.453.445 2.625 1.336 3.516l7.242 7.172zm18.985.562c-1.547-1.547-3.375-2.015-5.485-1.406l10.688 10.617c.328.375.492.867.492 1.477 0 1.172-.399 2.156-1.196 2.953-.515.516-1.23.89-2.144 1.125-.914.234-1.7.117-2.355-.352L16.944 22.328a5.856 5.856 0 0 0-.21 1.547c0 1.547.538 2.836 1.617 3.867l7.171 7.242c1.125 1.032 2.555 1.442 4.29 1.23 1.734-.21 3.164-.878 4.289-2.003 1.359-1.313 2.039-2.977 2.039-4.992 0-1.453-.446-2.625-1.336-3.516l-7.242-7.172zm-17.192-7.98a1.488 1.488 0 0 0-.457 1.09c0 .422.164.773.492 1.054l13.219 13.22c.281.327.633.491 1.055.491.422 0 .785-.152 1.09-.457a1.49 1.49 0 0 0 .457-1.09c0-.422-.164-.773-.493-1.054l-13.218-13.22a1.332 1.332 0 0 0-1.055-.491c-.422 0-.785.152-1.09.457z" fill="#FFF" fill-rule="evenodd"/></svg>