<svg width="149" height="24" viewBox="0 0 149 24" xmlns="http://www.w3.org/2000/svg"><title>Group 2</title><path d="M13.263 19h-3.75v-7.971c0-.985-.165-1.723-.497-2.216-.332-.492-.854-.738-1.567-.738-.959 0-1.655.35-2.09 1.05-.434.7-.65 1.85-.65 3.454V19H.958V5.353h2.864l.504 1.745h.21c.368-.626.9-1.117 1.597-1.47.696-.355 1.495-.532 2.397-.532 2.056 0 3.45.668 4.178 2.002h.332c.37-.635.912-1.127 1.629-1.477.717-.35 1.526-.525 2.427-.525 1.557 0 2.735.397 3.534 1.19.799.794 1.198 2.065 1.198 3.815V19h-3.76v-7.971c0-.985-.167-1.723-.499-2.216-.331-.492-.854-.738-1.567-.738-.917 0-1.604.325-2.058.976-.455.651-.682 1.685-.682 3.1V19zm16.19-11.255c-.794 0-1.417.25-1.868.75-.45.501-.708 1.211-.774 2.131h5.26c-.016-.92-.258-1.63-.725-2.13-.467-.5-1.098-.75-1.892-.75zm.53 11.5c-2.213 0-3.942-.607-5.187-1.82-1.246-1.212-1.869-2.93-1.869-5.151 0-2.287.576-4.055 1.727-5.304 1.151-1.25 2.743-1.874 4.775-1.874 1.942 0 3.454.55 4.535 1.648 1.082 1.099 1.623 2.617 1.623 4.553v1.807h-8.862c.041 1.058.357 1.884.947 2.478.59.594 1.417.891 2.482.891.828 0 1.61-.085 2.348-.256a11.8 11.8 0 0 0 2.31-.818v2.88a8.843 8.843 0 0 1-2.101.727c-.746.159-1.655.238-2.729.238zM44.39 5.095c.508 0 .93.037 1.266.11l-.283 3.491a4.322 4.322 0 0 0-1.106-.122c-1.196 0-2.128.305-2.796.916-.668.61-1.002 1.465-1.002 2.563V19h-3.748V5.353h2.839l.553 2.294h.184a5.144 5.144 0 0 1 1.727-1.849 4.279 4.279 0 0 1 2.366-.702zm6.924 14.148c-4.277 0-6.416-2.331-6.416-6.994 0-2.32.582-4.092 1.746-5.317 1.163-1.224 2.83-1.837 5.002-1.837 1.59 0 3.015.31 4.277.928l-1.106 2.88c-.59-.235-1.14-.428-1.647-.579a5.34 5.34 0 0 0-1.524-.226c-1.95 0-2.925 1.375-2.925 4.126 0 2.67.975 4.004 2.925 4.004a6.72 6.72 0 0 0 2.003-.287 7.254 7.254 0 0 0 1.844-.897v3.186a6.063 6.063 0 0 1-1.838.793c-.618.147-1.399.22-2.341.22zM66.498 19l-.504-1.746h-.196c-.402.635-.971 1.125-1.709 1.471-.737.346-1.577.52-2.52.52-1.613 0-2.83-.43-3.65-1.289-.819-.858-1.229-2.093-1.229-3.705V5.353h3.749v7.97c0 .985.176 1.724.529 2.216.352.493.913.739 1.683.739 1.05 0 1.807-.348 2.274-1.044.467-.696.7-1.85.7-3.46V5.352h3.75V19h-2.877zM79.064 5.096c.508 0 .93.037 1.266.11l-.283 3.491a4.322 4.322 0 0 0-1.106-.122c-1.197 0-2.129.305-2.796.916-.668.61-1.002 1.465-1.002 2.563V19h-3.749V5.353h2.84l.552 2.294h.185a5.144 5.144 0 0 1 1.727-1.849 4.279 4.279 0 0 1 2.366-.702zm1.688-3.271c0-1.213.68-1.82 2.04-1.82 1.36 0 2.04.607 2.04 1.82 0 .578-.17 1.027-.51 1.349-.34.321-.85.482-1.53.482-1.36 0-2.04-.61-2.04-1.831zM84.66 19h-3.748V5.353h3.748V19zm11.025-.795c-.736 0-1.41-.135-2.018-.405a3.79 3.79 0 0 1-1.534-1.246h-.123c.082.656.123 1.279.123 1.866v4.625H90.42V6.762h1.393l.238 1.538h.082c.441-.615.954-1.06 1.539-1.333.585-.274 1.256-.41 2.013-.41 1.5 0 2.658.509 3.474 1.527.816 1.019 1.223 2.448 1.223 4.287 0 1.845-.414 3.28-1.244 4.301-.829 1.022-1.98 1.533-3.453 1.533zm-.248-10.203c-1.156 0-1.992.318-2.509.954-.516.636-.78 1.648-.795 3.035v.38c0 1.579.265 2.708.795 3.389.53.68 1.38 1.02 2.55 1.02.978 0 1.744-.393 2.298-1.18.554-.786.83-1.869.83-3.25 0-1.401-.276-2.476-.83-3.225-.554-.748-1.334-1.123-2.339-1.123zM104.083 18h-1.713V2.045h1.713V18zm9.586 0l-.34-1.6h-.083c-.565.704-1.127 1.181-1.688 1.43-.561.25-1.261.375-2.101.375-1.122 0-2.001-.287-2.638-.861-.637-.574-.955-1.391-.955-2.45 0-2.27 1.827-3.46 5.482-3.57l1.92-.06v-.698c0-.882-.19-1.533-.573-1.953-.382-.42-.992-.631-1.832-.631-.943 0-2.01.287-3.2.861l-.527-1.302a8.086 8.086 0 0 1 1.832-.708 7.988 7.988 0 0 1 1.998-.256c1.35 0 2.349.298 3 .892.65.595.975 1.549.975 2.861V18h-1.27zm-3.871-1.2c1.066 0 1.904-.29 2.513-.871.61-.581.914-1.395.914-2.44v-1.016l-1.714.072c-1.362.048-2.345.258-2.947.63-.602.373-.904.952-.904 1.739 0 .615.188 1.083.563 1.404.375.322.9.482 1.575.482zm15.408 1.2v-7.27c0-.916-.21-1.6-.63-2.05-.42-.452-1.077-.678-1.972-.678-1.183 0-2.05.318-2.601.954-.55.636-.826 1.685-.826 3.148V18h-1.714V6.762h1.394l.278 1.538h.083a3.492 3.492 0 0 1 1.476-1.287c.634-.304 1.34-.456 2.117-.456 1.363 0 2.388.326 3.076.979.689.653 1.033 1.697 1.033 3.132V18h-1.714zm9.008.205c-1.673 0-2.993-.506-3.96-1.517-.967-1.012-1.45-2.417-1.45-4.215 0-1.811.449-3.25 1.347-4.317.898-1.066 2.104-1.6 3.619-1.6 1.418 0 2.54.464 3.365 1.39.826.926 1.24 2.148 1.24 3.666v1.076h-7.795c.034 1.32.37 2.321 1.006 3.005.637.683 1.533 1.025 2.69 1.025 1.218 0 2.422-.253 3.613-.759v1.518a9.113 9.113 0 0 1-1.719.559c-.54.113-1.192.17-1.956.17zm-.465-10.223c-.908 0-1.633.294-2.173.882-.54.588-.859 1.401-.955 2.44h5.916c0-1.073-.241-1.895-.723-2.466-.482-.57-1.17-.856-2.065-.856zm10.195 8.818c.303 0 .595-.022.877-.066.283-.045.506-.09.671-.139v1.302c-.185.09-.459.163-.82.22a6.205 6.205 0 0 1-.976.088c-2.189 0-3.283-1.145-3.283-3.435V8.084h-1.62v-.82l1.62-.707.723-2.4h.99v2.605h3.284v1.322h-3.283v6.614c0 .677.162 1.197.485 1.559.324.362.767.543 1.332.543zm2.555.113c0-.458.105-.805.315-1.04.21-.237.51-.354.903-.354.4 0 .71.117.934.353.224.236.336.583.336 1.041 0 .444-.114.786-.34 1.025-.228.24-.538.36-.93.36-.35 0-.642-.108-.872-.324-.23-.215-.346-.569-.346-1.06z" fill="#FFF" fill-rule="evenodd"/></svg>