<svg width="20" height="17" viewBox="0 0 20 17" xmlns="http://www.w3.org/2000/svg"><title>{</title><path d="M1 4.016c0 .937.328 1.746.984 2.425.657.68 1.43 1.02 2.32 1.02.563 0 1.102-.164 1.618-.492-.235 2.625-1.734 5.062-4.5 7.312-.563.469-.633.985-.211 1.547.234.328.539.492.914.492a.874.874 0 0 0 .633-.28c3.375-2.72 5.156-5.767 5.344-9.142.187-2.343-.305-4.101-1.477-5.273-.14-.14-.21-.234-.21-.281-.188-.14-.352-.258-.493-.352h-.07L5.43.782l.07.07C5.078.664 4.68.57 4.305.57c-.89 0-1.664.34-2.32 1.02A3.372 3.372 0 0 0 1 4.016zm10.898 0c0 .937.329 1.746.985 2.425.656.68 1.43 1.02 2.32 1.02.563 0 1.102-.164 1.617-.492-.234 2.625-1.734 5.062-4.5 7.312-.562.469-.61.985-.14 1.547a.912.912 0 0 0 .843.492.874.874 0 0 0 .633-.28c3.375-2.72 5.156-5.767 5.344-9.142.188-2.343-.305-4.101-1.477-5.273-.14-.14-.21-.234-.21-.281a1.877 1.877 0 0 0-.493-.352h-.07a1.775 1.775 0 0 0-.422-.21l.07.07c-.421-.188-.82-.282-1.195-.282-.89 0-1.664.34-2.32 1.02a3.372 3.372 0 0 0-.985 2.426z" fill="#FFF" fill-rule="evenodd"/></svg>