<?xml version="1.0" encoding="UTF-8"?>
<svg width="149px" height="25px" viewBox="0 0 149 25" version="1.1" xmlns="http://www.w3.org/2000/svg"
     xmlns:xlink="http://www.w3.org/1999/xlink">
    <!-- Generator: Sketch 40.1 (33804) - http://www.bohemiancoding.com/sketch -->
    <title>Group 2</title>
    <desc>Created with Sketch.</desc>
    <defs></defs>
    <g id="Symbols" stroke="none" stroke-width="1" fill="none" fill-rule="evenodd">
        <g id="Pages-Logo-|-Black" transform="translate(0.000000, -5.000000)" fill="#000000">
            <g id="Group-2" transform="translate(0.000000, 5.000000)">
                <path d="M13.2625686,19 L9.51392769,19 L9.51392769,11.0288086 C9.51392769,10.0441031 9.3480059,9.30558514 9.01615734,8.81323242 C8.68430878,8.3208797 8.1619624,8.07470703 7.44910254,8.07470703 C6.49042892,8.07470703 5.79396709,8.42463843 5.35969614,9.12451172 C4.92542518,9.82438501 4.70829296,10.9759034 4.70829296,12.5791016 L4.70829296,19 L0.959652069,19 L0.959652069,5.35253906 L3.8233679,5.35253906 L4.32728356,7.09814453 L4.5362242,7.09814453 C4.90494482,6.47151379 5.43753328,5.98120294 6.13400557,5.62719727 C6.83047785,5.27319159 7.62936054,5.09619141 8.53067761,5.09619141 C10.5873193,5.09619141 11.980243,5.76350244 12.7094904,7.09814453 L13.0413373,7.09814453 C13.4100579,6.46337573 13.9528885,5.9710304 14.6698452,5.62109375 C15.386802,5.2711571 16.1959268,5.09619141 17.0972439,5.09619141 C18.6540643,5.09619141 19.8319041,5.49291595 20.6307988,6.28637695 C21.4296935,7.07983795 21.8291348,8.35139099 21.8291348,10.1010742 L21.8291348,19 L18.0682033,19 L18.0682033,11.0288086 C18.0682033,10.0441031 17.9022815,9.30558514 17.570433,8.81323242 C17.2385844,8.3208797 16.716238,8.07470703 16.0033782,8.07470703 C15.0856735,8.07470703 14.3994537,8.40022461 13.9446983,9.05126953 C13.4899429,9.70231445 13.2625686,10.7358328 13.2625686,12.1518555 L13.2625686,19 Z M29.4536492,7.74511719 C28.6588514,7.74511719 28.0361326,7.99535883 27.5854741,8.49584961 C27.1348155,8.99634039 26.876715,9.70637561 26.8111646,10.6259766 L32.0715525,10.6259766 C32.0551649,9.70637561 31.8134517,8.99634039 31.3464056,8.49584961 C30.8793595,7.99535883 30.248447,7.74511719 29.4536492,7.74511719 L29.4536492,7.74511719 Z M29.9821461,19.2441406 C27.7698224,19.2441406 26.0409583,18.6378641 24.795502,17.425293 C23.5500457,16.2127218 22.9273269,14.4956166 22.9273269,12.2739258 C22.9273269,9.98713049 23.5029321,8.21916315 24.6541598,6.9699707 C25.8053875,5.72077826 27.3970076,5.09619141 29.4290679,5.09619141 C31.3709965,5.09619141 32.8827284,5.64550232 33.9643089,6.74414062 C35.0458894,7.84277893 35.5866715,9.36050464 35.5866715,11.2973633 L35.5866715,13.1040039 L26.7251303,13.1040039 C26.7660992,14.1619519 27.0815555,14.9879528 27.6715084,15.5820312 C28.2614614,16.1761097 29.089022,16.4731445 30.1542149,16.4731445 C30.9817878,16.4731445 31.7642832,16.3876962 32.5017244,16.2167969 C33.2391657,16.0458976 34.0093705,15.7732766 34.8123621,15.3989258 L34.8123621,18.2797852 C34.1568588,18.6053076 33.4563001,18.8474113 32.7106651,19.0061035 C31.96503,19.1647957 31.0555328,19.2441406 29.9821461,19.2441406 L29.9821461,19.2441406 Z M44.391086,5.09619141 C44.899101,5.09619141 45.321075,5.13281213 45.6570204,5.20605469 L45.374336,8.69726562 C45.0711658,8.61588501 44.7024507,8.57519531 44.2681797,8.57519531 C43.0718861,8.57519531 42.1398563,8.88036804 41.4720623,9.49072266 C40.8042683,10.1010773 40.4703763,10.9555609 40.4703763,12.0541992 L40.4703763,19 L36.7217354,19 L36.7217354,5.35253906 L39.56087,5.35253906 L40.1139482,7.64746094 L40.2983076,7.64746094 C40.7243847,6.88248315 41.2999899,6.26603424 42.0251405,5.7980957 C42.750291,5.33015717 43.5389317,5.09619141 44.391086,5.09619141 L44.391086,5.09619141 Z M51.3150347,19.2441406 C47.0378755,19.2441406 44.899328,16.912621 44.899328,12.2495117 C44.899328,9.93016418 45.4810784,8.15812787 46.6445968,6.93334961 C47.8081152,5.70857135 49.4755268,5.09619141 51.6468816,5.09619141 C53.2364771,5.09619141 54.6621755,5.40543311 55.9240194,6.02392578 L54.817863,8.90478516 C54.2279101,8.66878137 53.6789343,8.47550531 53.1709192,8.32495117 C52.6629041,8.17439703 52.1548966,8.09912109 51.6468816,8.09912109 C49.6967592,8.09912109 48.7217126,9.47443286 48.7217126,12.2250977 C48.7217126,14.8943818 49.6967592,16.2290039 51.6468816,16.2290039 C52.3679352,16.2290039 53.0357192,16.1333831 53.6502536,15.9421387 C54.264788,15.7508942 54.8793131,15.451825 55.4938475,15.0449219 L55.4938475,18.230957 C54.8875069,18.6134459 54.2750302,18.877929 53.6563989,19.0244141 C53.0377676,19.1708992 52.2573207,19.2441406 51.3150347,19.2441406 L51.3150347,19.2441406 Z M66.498284,19 L65.9943683,17.2543945 L65.7977183,17.2543945 C65.3962225,17.8891633 64.8267625,18.3794742 64.0893213,18.7253418 C63.35188,19.0712094 62.512029,19.2441406 61.569743,19.2441406 C59.955566,19.2441406 58.7388063,18.8148643 57.9194271,17.9562988 C57.1000479,17.0977333 56.6903645,15.862801 56.6903645,14.2514648 L56.6903645,5.35253906 L60.4390054,5.35253906 L60.4390054,13.3237305 C60.4390054,14.3084359 60.6151693,15.0469539 60.9675023,15.5393066 C61.3198354,16.0316594 61.8811017,16.277832 62.6513181,16.277832 C63.7001234,16.277832 64.4580377,15.9299351 64.9250839,15.2341309 C65.39213,14.5383266 65.6256495,13.3847737 65.6256495,11.7734375 L65.6256495,5.35253906 L69.3742904,5.35253906 L69.3742904,19 L66.498284,19 Z M79.0636299,5.09619141 C79.571645,5.09619141 79.993619,5.13281213 80.3295644,5.20605469 L80.04688,8.69726562 C79.7437097,8.61588501 79.3749946,8.57519531 78.9407237,8.57519531 C77.7444301,8.57519531 76.8124003,8.88036804 76.1446063,9.49072266 C75.4768123,10.1010773 75.1429203,10.9555609 75.1429203,12.0541992 L75.1429203,19 L71.3942794,19 L71.3942794,5.35253906 L74.233414,5.35253906 L74.7864921,7.64746094 L74.9708515,7.64746094 C75.3969287,6.88248315 75.9725339,6.26603424 76.6976845,5.7980957 C77.422835,5.33015717 78.2114756,5.09619141 79.0636299,5.09619141 L79.0636299,5.09619141 Z M80.751772,1.82470703 C80.751772,0.612135864 81.4318465,0.005859375 82.7920159,0.005859375 C84.1521853,0.005859375 84.8322598,0.612135864 84.8322598,1.82470703 C84.8322598,2.4025094 84.6622412,2.85213055 84.3221988,3.17358398 C83.9821565,3.49503741 83.4721006,3.65576172 82.7920159,3.65576172 C81.4318465,3.65576172 80.751772,3.04541626 80.751772,1.82470703 L80.751772,1.82470703 Z M84.660191,19 L80.9115502,19 L80.9115502,5.35253906 L84.660191,5.35253906 L84.660191,19 Z"
                      id="mercuri"></path>
                <path d="M95.6849806,19.2050781 C94.9485227,19.2050781 94.2757405,19.0700697 93.6666141,18.8000488 C93.0574876,18.5300279 92.5464485,18.1147489 92.1334814,17.5541992 L92.0095919,17.5541992 C92.0921853,18.2104525 92.1334814,18.8325166 92.1334814,19.4204102 L92.1334814,24.0449219 L90.4196765,24.0449219 L90.4196765,7.76171875 L91.8134335,7.76171875 L92.0508884,9.29980469 L92.1334814,9.29980469 C92.5739796,8.68456724 93.0867394,8.24023574 93.6717761,7.96679688 C94.2568128,7.69335801 94.9278743,7.55664062 95.6849806,7.55664062 C97.1854278,7.55664062 98.3434389,8.06591288 99.159049,9.08447266 C99.974659,10.1030324 100.382458,11.5317291 100.382458,13.3706055 C100.382458,15.2163178 99.9677763,16.6501414 99.1384007,17.6721191 C98.3090251,18.6940969 97.1578966,19.2050781 95.6849806,19.2050781 L95.6849806,19.2050781 Z M95.4372016,9.00244141 C94.2808938,9.00244141 93.4446479,9.32030932 92.9284391,9.95605469 C92.4122302,10.5918001 92.147247,11.6035087 92.1334814,12.9912109 L92.1334814,13.3706055 C92.1334814,14.9497149 92.3984646,16.0793423 92.9284391,16.7595215 C93.4584135,17.4397007 94.3084247,17.7797852 95.4784981,17.7797852 C96.4558536,17.7797852 97.2215519,17.3867227 97.7756161,16.6005859 C98.3296803,15.8144492 98.6067082,14.7309639 98.6067082,13.3500977 C98.6067082,11.9487235 98.3296803,10.873783 97.7756161,10.1252441 C97.2215519,9.37670524 96.4420882,9.00244141 95.4372016,9.00244141 L95.4372016,9.00244141 Z M104.083411,19 L102.369606,19 L102.369606,3.04492188 L104.083411,3.04492188 L104.083411,19 Z M113.669116,19 L113.32842,17.4003906 L113.245827,17.4003906 C112.681439,18.1044957 112.118779,18.5812976 111.557832,18.8308105 C110.996885,19.0803235 110.296573,19.2050781 109.456873,19.2050781 C108.334979,19.2050781 107.455716,18.9179716 106.819059,18.34375 C106.182401,17.7695284 105.864077,16.952642 105.864077,15.8930664 C105.864077,13.6235238 107.691429,12.4340826 111.346188,12.324707 L113.266475,12.2631836 L113.266475,11.565918 C113.266475,10.6840776 113.075481,10.0329611 112.693486,9.61254883 C112.311492,9.19213657 111.700654,8.98193359 110.860954,8.98193359 C109.918012,8.98193359 108.851197,9.2690401 107.660475,9.84326172 L107.133944,8.54101562 C107.69145,8.24023287 108.302288,8.00439539 108.966477,7.83349609 C109.630666,7.6625968 110.296565,7.57714844 110.964195,7.57714844 C112.313221,7.57714844 113.31293,7.87450875 113.963354,8.46923828 C114.613777,9.06396782 114.938984,10.0175716 114.938984,11.3300781 L114.938984,19 L113.669116,19 Z M109.797569,17.800293 C110.864401,17.800293 111.702367,17.5097685 112.311494,16.9287109 C112.92062,16.3476533 113.225179,15.5341849 113.225179,14.4882812 L113.225179,13.4731445 L111.511374,13.5449219 C110.148582,13.5927737 109.16608,13.8029767 108.563836,14.1755371 C107.961592,14.5480976 107.660475,15.1274375 107.660475,15.9135742 C107.660475,16.5288117 107.848028,16.9970687 108.22314,17.3183594 C108.598252,17.63965 109.123056,17.800293 109.797569,17.800293 L109.797569,17.800293 Z M125.206081,19 L125.206081,11.7299805 C125.206081,10.8139603 124.996159,10.1303733 124.576309,9.67919922 C124.156459,9.22802509 123.499163,9.00244141 122.604401,9.00244141 C121.420562,9.00244141 120.553344,9.32030932 120.002721,9.95605469 C119.452099,10.5918001 119.176791,11.641106 119.176791,13.1040039 L119.176791,19 L117.462986,19 L117.462986,7.76171875 L118.856743,7.76171875 L119.135495,9.29980469 L119.218088,9.29980469 C119.56911,8.74609098 120.061222,8.31714019 120.694438,8.01293945 C121.327654,7.70873871 122.033129,7.55664062 122.810884,7.55664062 C124.173675,7.55664062 125.199195,7.88305338 125.887473,8.53588867 C126.575752,9.18872397 126.919886,10.232903 126.919886,11.668457 L126.919886,19 L125.206081,19 Z M134.213635,19.2050781 C132.541118,19.2050781 131.221364,18.6992238 130.254332,17.6875 C129.287301,16.6757762 128.803793,15.2710051 128.803793,13.4731445 C128.803793,11.661612 129.252888,10.2226616 130.151091,9.15625 C131.049295,8.08983842 132.255485,7.55664062 133.769697,7.55664062 C135.187551,7.55664062 136.309428,8.01977076 137.135362,8.94604492 C137.961296,9.87231908 138.374257,11.0942307 138.374257,12.6118164 L138.374257,13.6884766 L130.579542,13.6884766 C130.613956,15.0078191 130.949487,16.0092739 131.586145,16.6928711 C132.222802,17.3764683 133.119272,17.7182617 134.275579,17.7182617 C135.493832,17.7182617 136.698302,17.4653346 137.889023,16.9594727 L137.889023,18.4770508 C137.283338,18.7368177 136.710355,18.9230951 136.170057,19.0358887 C135.629758,19.1486822 134.977624,19.2050781 134.213635,19.2050781 L134.213635,19.2050781 Z M133.749049,8.98193359 C132.840521,8.98193359 132.116119,9.27587597 131.575821,9.86376953 C131.035522,10.4516631 130.717198,11.2651315 130.620839,12.3041992 L136.536563,12.3041992 C136.536563,11.2309517 136.295669,10.4089384 135.813874,9.83813477 C135.332079,9.26733113 134.643811,8.98193359 133.749049,8.98193359 L133.749049,8.98193359 Z M143.943877,17.800293 C144.24672,17.800293 144.539234,17.7780764 144.821428,17.7336426 C145.103622,17.6892088 145.327309,17.6430666 145.492496,17.5952148 L145.492496,18.8974609 C145.306661,18.9863286 145.033074,19.0598142 144.671728,19.1179199 C144.310382,19.1760257 143.985175,19.2050781 143.696098,19.2050781 C141.507373,19.2050781 140.413026,18.06007 140.413026,15.7700195 L140.413026,9.08447266 L138.792139,9.08447266 L138.792139,8.26416016 L140.413026,7.55664062 L141.135715,5.15722656 L142.126831,5.15722656 L142.126831,7.76171875 L145.409903,7.76171875 L145.409903,9.08447266 L142.126831,9.08447266 L142.126831,15.6982422 C142.126831,16.3750034 142.288574,16.8945294 142.612065,17.2568359 C142.935556,17.6191424 143.379489,17.800293 143.943877,17.800293 L143.943877,17.800293 Z M146.498853,17.9130859 C146.498853,17.4550758 146.603814,17.1081555 146.813739,16.8723145 C147.023663,16.6364734 147.324781,16.5185547 147.7171,16.5185547 C148.116301,16.5185547 148.427742,16.6364734 148.651433,16.8723145 C148.875123,17.1081555 148.986967,17.4550758 148.986967,17.9130859 C148.986967,18.3574241 148.873403,18.6992176 148.646271,18.9384766 C148.419139,19.1777356 148.109418,19.2973633 147.7171,19.2973633 C147.366077,19.2973633 147.075284,19.1896983 146.844711,18.9743652 C146.614138,18.7590321 146.498853,18.4052759 146.498853,17.9130859 L146.498853,17.9130859 Z"
                      id="planet."></path>
            </g>
        </g>
    </g>
</svg>