<?xml version="1.0" encoding="UTF-8"?>
<svg width="14px" height="13px" viewBox="0 0 14 13" version="1.1" xmlns="http://www.w3.org/2000/svg"
     xmlns:xlink="http://www.w3.org/1999/xlink">
    <!-- Generator: Sketch 40.1 (33804) - http://www.bohemiancoding.com/sketch -->
    <title></title>
    <desc>Created with Sketch.</desc>
    <defs></defs>
    <g id="Home" stroke="none" stroke-width="1" fill="none" fill-rule="evenodd">
        <g transform="translate(-251.000000, -3692.000000)" id="" fill="#FFFFFF">
            <path d="M265,3696.91797 C264.981771,3695.84244 264.58529,3694.89909 263.810547,3694.08789 C263.035803,3693.27669 262.119797,3692.87109 261.0625,3692.87109 C259.82291,3692.87109 258.802087,3693.40885 258,3694.48438 C257.197913,3693.40885 256.17709,3692.87109 254.9375,3692.87109 C253.880203,3692.87109 252.964197,3693.27669 252.189453,3694.08789 C251.41471,3694.89909 251.018229,3695.84244 251,3696.91797 L251,3696.95898 L251,3696.97266 L251,3697 C251,3697.01823 251.004557,3697.04557 251.013672,3697.08203 C251.022787,3697.11849 251.027344,3697.14583 251.027344,3697.16406 C251.045573,3697.91146 251.191405,3698.62695 251.464844,3699.31055 C251.738283,3699.99414 252.070962,3700.58203 252.462891,3701.07422 C252.85482,3701.56641 253.315102,3702.03581 253.84375,3702.48242 C254.372398,3702.92904 254.850909,3703.28906 255.279297,3703.5625 C255.707684,3703.83594 256.154295,3704.08203 256.619141,3704.30078 C257.083987,3704.51953 257.398437,3704.66081 257.5625,3704.72461 C257.726563,3704.78841 257.854166,3704.83854 257.945312,3704.875 C258.036459,3704.83854 258.164062,3704.79297 258.328125,3704.73828 C258.492188,3704.68359 258.811196,3704.54232 259.285156,3704.31445 C259.759117,3704.08659 260.214842,3703.83594 260.652344,3703.5625 C261.089846,3703.28906 261.577471,3702.9336 262.115234,3702.49609 C262.652997,3702.05859 263.117837,3701.5892 263.509766,3701.08789 C263.901695,3700.58659 264.238931,3699.99414 264.521484,3699.31055 C264.804038,3698.62695 264.954427,3697.91146 264.972656,3697.16406 C264.972656,3697.14583 264.977213,3697.11849 264.986328,3697.08203 C264.995443,3697.04557 265,3697.01823 265,3697 L265,3696.97266 L265,3696.94531 L265,3696.91797 L265,3696.91797 Z M264.097656,3697.13672 C264.079427,3697.92058 263.883465,3698.67708 263.509766,3699.40625 C263.136066,3700.13542 262.712242,3700.73698 262.238281,3701.21094 C261.764321,3701.6849 261.212894,3702.13151 260.583984,3702.55078 C259.955075,3702.97005 259.444663,3703.27083 259.052734,3703.45312 C258.660805,3703.63542 258.291668,3703.79948 257.945312,3703.94531 C257.598957,3703.79948 257.234377,3703.63542 256.851562,3703.45312 C256.468748,3703.27083 255.967451,3702.97005 255.347656,3702.55078 C254.727861,3702.13151 254.185549,3701.6849 253.720703,3701.21094 C253.255857,3700.73698 252.841148,3700.13542 252.476562,3699.40625 C252.111977,3698.67708 251.920573,3697.91146 251.902344,3697.10938 C251.902344,3697.07292 251.893229,3697.03646 251.875,3697 L251.875,3696.94531 C251.893229,3696.07031 252.203122,3695.31836 252.804688,3694.68945 C253.406253,3694.06054 254.117183,3693.74609 254.9375,3693.74609 C255.885421,3693.74609 256.669268,3694.16536 257.289062,3695.00391 C257.471355,3695.24089 257.708332,3695.35938 258,3695.35938 C258.291668,3695.35938 258.528645,3695.24089 258.710938,3695.00391 C259.330732,3694.16536 260.114579,3693.74609 261.0625,3693.74609 C261.882817,3693.74609 262.593747,3694.06054 263.195312,3694.68945 C263.796878,3695.31836 264.106771,3696.07031 264.125,3696.94531 L264.125,3697 C264.106771,3697.03646 264.097656,3697.08203 264.097656,3697.13672 L264.097656,3697.13672 Z"></path>
        </g>
    </g>
</svg>