<?xml version="1.0" encoding="UTF-8"?>
<svg width="20px" height="17px" viewBox="0 0 20 17" version="1.1" xmlns="http://www.w3.org/2000/svg" xmlns:xlink="http://www.w3.org/1999/xlink">
    <!-- Generator: Sketch 40.1 (33804) - http://www.bohemiancoding.com/sketch -->
    <title>{</title>
    <desc>Created with Sketch.</desc>
    <defs></defs>
    <g id="Home" stroke="none" stroke-width="1" fill="none" fill-rule="evenodd">
        <g transform="translate(-545.000000, -3540.000000)" id="Article-quote" fill="#FFFFFF">
            <g transform="translate(180.000000, 3507.000000)">
                <path d="M366,37.015625 C366,37.9531297 366.328122,38.7617154 366.984375,39.4414062 C367.640628,40.1210971 368.414058,40.4609375 369.304687,40.4609375 C369.86719,40.4609375 370.406247,40.2968766 370.921875,39.96875 C370.687499,42.5937631 369.187514,45.0312387 366.421875,47.28125 C365.859372,47.7500023 365.78906,48.2656222 366.210937,48.828125 C366.445314,49.1562516 366.749998,49.3203125 367.125,49.3203125 C367.359376,49.3203125 367.570312,49.2265634 367.757812,49.0390625 C371.132829,46.3202989 372.914062,43.2734544 373.101562,39.8984375 C373.289063,37.5546758 372.796881,35.7968809 371.625,34.625 C371.484374,34.4843743 371.414062,34.3906252 371.414062,34.34375 C371.226562,34.2031243 371.062501,34.085938 370.921875,33.9921875 L370.851562,33.9921875 L370.429687,33.78125 L370.5,33.8515625 C370.078123,33.6640616 369.679689,33.5703125 369.304687,33.5703125 C368.414058,33.5703125 367.640628,33.9101529 366.984375,34.5898438 C366.328122,35.2695346 366,36.0781203 366,37.015625 L366,37.015625 Z M376.898438,37.015625 C376.898438,37.9531297 377.226559,38.7617154 377.882813,39.4414062 C378.539066,40.1210971 379.312496,40.4609375 380.203125,40.4609375 C380.765628,40.4609375 381.304685,40.2968766 381.820313,39.96875 C381.585936,42.5937631 380.085951,45.0312387 377.320313,47.28125 C376.75781,47.7500023 376.710935,48.2656222 377.179688,48.828125 C377.367188,49.1562516 377.648436,49.3203125 378.023438,49.3203125 C378.257814,49.3203125 378.468749,49.2265634 378.65625,49.0390625 C382.031267,46.3202989 383.812499,43.2734544 384,39.8984375 C384.187501,37.5546758 383.695318,35.7968809 382.523438,34.625 C382.382812,34.4843743 382.3125,34.3906252 382.3125,34.34375 C382.171874,34.2031243 382.007813,34.085938 381.820313,33.9921875 L381.75,33.9921875 C381.609374,33.898437 381.468751,33.8281252 381.328125,33.78125 L381.398438,33.8515625 C380.97656,33.6640616 380.578127,33.5703125 380.203125,33.5703125 C379.312496,33.5703125 378.539066,33.9101529 377.882813,34.5898438 C377.226559,35.2695346 376.898438,36.0781203 376.898438,37.015625 L376.898438,37.015625 Z" id="{"></path>
            </g>
        </g>
    </g>
</svg>