<?xml version="1.0" encoding="UTF-8"?>
<svg width="37px" height="37px" viewBox="0 0 37 37" version="1.1" xmlns="http://www.w3.org/2000/svg"
     xmlns:xlink="http://www.w3.org/1999/xlink">
    <!-- Generator: Sketch 40.1 (33804) - http://www.bohemiancoding.com/sketch -->
    <title></title>
    <desc>Created with Sketch.</desc>
    <defs></defs>
    <g id="Home" stroke="none" stroke-width="1" fill="none" fill-rule="evenodd">
        <g transform="translate(-537.000000, -3809.000000)" id="Article-link" fill="#FFFFFF">
            <g transform="translate(180.000000, 3787.000000)">
                <path d="M365.578125,39.96875 C367.125008,41.5156327 368.953114,41.984378 371.0625,41.375 L360.375,30.7578125 C360.046873,30.3828106 359.882812,29.890628 359.882812,29.28125 C359.882812,28.1093691 360.281246,27.125004 361.078125,26.328125 C361.593753,25.8124974 362.308589,25.4375012 363.222656,25.203125 C364.136723,24.9687488 364.921872,25.0859352 365.578125,25.5546875 L376.195312,36.171875 C376.335938,35.6562474 376.40625,35.1406276 376.40625,34.625 C376.40625,33.0781173 375.867193,31.7890677 374.789062,30.7578125 L367.617188,23.515625 C366.492182,22.4843698 365.05079,22.0742177 363.292969,22.2851562 C361.535147,22.4960948 360.117193,23.1640569 359.039062,24.2890625 C357.679681,25.6015691 357,27.2656149 357,29.28125 C357,30.7343823 357.445308,31.9062455 358.335938,32.796875 L365.578125,39.96875 Z M384.5625,40.53125 C383.015617,38.9843673 381.187511,38.515622 379.078125,39.125 L389.765625,49.7421875 C390.093752,50.1171894 390.257812,50.609372 390.257812,51.21875 C390.257812,52.3906309 389.859379,53.374996 389.0625,54.171875 C388.546872,54.6875026 387.832036,55.0624988 386.917969,55.296875 C386.003902,55.5312512 385.218753,55.4140648 384.5625,54.9453125 L373.945312,44.328125 C373.804687,44.8437526 373.734375,45.3593724 373.734375,45.875 C373.734375,47.4218827 374.273432,48.7109323 375.351562,49.7421875 L382.523438,56.984375 C383.648443,58.0156302 385.078116,58.4257823 386.8125,58.2148438 C388.546884,58.0039052 389.976557,57.3359431 391.101562,56.2109375 C392.460944,54.8984309 393.140625,53.2343851 393.140625,51.21875 C393.140625,49.7656177 392.695317,48.5937545 391.804688,47.703125 L384.5625,40.53125 Z M367.371094,32.5507812 C367.066405,32.8554703 366.914062,33.2187479 366.914062,33.640625 C366.914062,34.0625021 367.078123,34.4140611 367.40625,34.6953125 L380.625,47.9140625 C380.906251,48.2421891 381.25781,48.40625 381.679688,48.40625 C382.101565,48.40625 382.464842,48.2539078 382.769531,47.9492188 C383.07422,47.6445297 383.226562,47.2812521 383.226562,46.859375 C383.226562,46.4374979 383.062502,46.0859389 382.734375,45.8046875 L369.515625,32.5859375 C369.234374,32.2578109 368.882815,32.09375 368.460938,32.09375 C368.03906,32.09375 367.675783,32.2460922 367.371094,32.5507812 L367.371094,32.5507812 Z"
                      id=""></path>
            </g>
        </g>
    </g>
</svg>